<?xml version="1.0" encoding="UTF-8"?>
<svg width="107px" height="101px" viewBox="0 0 107 101" version="1.1" xmlns="http://www.w3.org/2000/svg" xmlns:xlink="http://www.w3.org/1999/xlink">
    <title>p2-link</title>
    <g id="Page-1" stroke="none" stroke-width="1" fill="none" fill-rule="evenodd">
        <g id="p2-link" transform="translate(0.171086, 0.630124)" fill="#000708" fill-rule="nonzero">
            <path d="M103.914036,3.82133952 C108.285255,8.19255903 107.08989,14.5937785 104.239402,19.4247541 C100.646231,24.637681 94.9098896,29.8859737 89.1028164,32.5242663 C87.0233042,33.4579249 87.9498896,30.4023151 87.8225725,29.2564615 C92.108914,24.927681 97.1308652,22.3035346 99.9742798,16.5459737 C102.513548,11.9271932 101.954768,5.95036391 96.0345237,4.62060781 C89.0815969,3.38280293 81.1242798,8.84329073 76.9581823,14.0915834 C75.4940359,15.9093883 72.763792,18.5830468 73.0467189,21.0728029 C77.276475,21.8932907 82.538914,22.6713395 83.4867189,27.7428029 C83.3452555,35.5515834 84.363792,43.1623151 84.4840359,50.9710956 C85.4176945,55.1159737 83.0269628,57.8532907 80.1906213,60.4632907 C68.8240359,72.0845102 56.7642798,82.6023151 45.5250115,94.4074371 C42.2854994,97.5337785 39.9301335,100.943047 34.8162311,99.7830468 C30.3459872,97.76012 27.4742798,92.8584127 23.3223286,90.0503639 C15.8742798,82.9984127 7.34403594,75.9323151 0.879157891,67.9467054 C-1.17206162,64.9971932 0.765987159,63.5613395 2.61915789,61.425242 C6.19110911,56.3608517 11.3828164,53.2981688 15.1740359,48.5096322 C23.0323286,41.5142663 30.2681823,33.8964615 37.7303774,26.4908517 C40.0433042,24.1567054 42.9008652,21.0303639 46.1333042,20.082559 C50.7874506,19.7713395 55.526475,19.9906078 60.2018408,19.9764615 C62.4157433,19.9340224 65.5562311,21.0374371 67.3740359,19.3681688 C71.1581823,12.4435346 77.0218408,4.93890049 84.5759872,1.96816878 C90.2133042,-0.67719707 99.3942798,-1.19353853 103.914036,3.82133952 Z M67.9894018,37.6381688 C64.0920847,36.5064615 65.0115969,33.6418273 63.6818408,30.6074371 C60.7181823,31.7462176 59.1196457,33.7549981 58.801353,36.9379249 C59.5794018,41.50012 62.9815969,44.4991444 67.7206213,43.7635346 C74.7867189,43.1340224 76.5974506,32.3474371 70.1254994,29.9284127 C70.401353,33.5003639 71.9291579,35.5515834 67.9894018,37.6381688 Z" id="p2"></path>
        </g>
    </g>
</svg>