<?xml version="1.0" encoding="UTF-8"?>
<svg width="156px" height="156px" viewBox="0 0 156 156" version="1.1" xmlns="http://www.w3.org/2000/svg" xmlns:xlink="http://www.w3.org/1999/xlink">
    <title>Group 2</title>
    <defs>
        <rect id="path-1" x="0" y="0" width="156" height="156" rx="35"></rect>
    </defs>
    <g id="Page-1" stroke="none" stroke-width="1" fill="none" fill-rule="evenodd">
        <g id="Group-2">
            <mask id="mask-2" fill="white">
                <use xlink:href="#path-1"></use>
            </mask>
            <g id="Rectangle"></g>
            <g id="icon" mask="url(#mask-2)">
                <g transform="translate(-10.000000, -10.000000)" id="Group">
                    <g>
                        <g id="p0-link" fill="#000000" fill-rule="nonzero" stroke="#EFF6F7">
                            <path d="M0,0 L174,0 L174,174 L0,174 L0,0 Z M39.5743902,9.71146341 C29.1273171,10.3763415 19.9180488,16.1056098 13.8917073,24.5085366 C8.66463415,32.9326829 8.1695122,41.9863415 8.48780488,51.6341463 C8.48780488,75.6829268 8.48780488,99.7317073 8.48780488,123.780488 C8.11292683,133.26561 8.78487805,142.941707 14.705122,150.807073 C21.0639024,159.761707 30.8178049,164.45122 41.7246341,164.804878 C70.7104878,164.819024 99.7458537,164.776585 128.731707,164.826098 C138.853415,164.437073 148.373902,162.590976 155.46122,154.753902 C162.371707,148.571951 165.116098,139.893171 165.533415,130.860732 C165.490976,101.386829 165.505122,71.8987805 165.526341,42.424878 C164.769512,31.7868293 160.553902,22.2309756 151.655854,15.9712195 C144.271463,9.64780488 132.346098,8.96878049 123.073171,9.19512195 C106.097561,9.19512195 89.1219512,9.19512195 72.1463415,9.19512195 C61.3385366,9.48512195 50.3114634,8.5797561 39.5743902,9.71146341 Z" id="p0"></path>
                        </g>
                        <g id="p1-link" transform="translate(8.403438, 9.123953)" fill="#000000" fill-rule="nonzero" stroke="#078262">
                            <path d="M63.7429031,0.0711686646 C80.7185129,0.0711686646 97.6941227,0.0711686646 114.669732,0.0711686646 C123.942659,-0.155172799 135.868025,0.523851591 143.252415,6.84726623 C152.150464,13.1070223 156.366074,22.662876 157.122903,33.3009248 C157.101684,62.7748272 157.087537,92.262876 157.129976,121.736778 C156.712659,130.769217 153.968269,139.447998 147.057781,145.629949 C139.970464,153.467022 130.449976,155.31312 120.328269,155.702144 C91.3424153,155.652632 62.3070495,155.695071 33.3211958,155.680925 C22.4143666,155.327266 12.6604641,150.637754 6.30168363,141.68312 C0.38143973,133.817754 -0.290511489,124.141656 0.0843665597,114.656535 C0.0843665597,90.607754 0.0843665597,66.5589735 0.0843665597,42.5101931 C-0.233926123,32.8623882 0.261195828,23.8087296 5.488269,15.3845833 C11.5146105,6.98165647 20.7238788,1.25238818 31.1709519,0.587510128 C41.9080251,-0.544197189 52.9350983,0.361168665 63.7429031,0.0711686646 Z M97.8143666,48.5789735 C97.5314397,46.0892174 100.261684,43.4155589 101.72583,41.597754 C105.891928,36.3494613 113.849245,30.8889735 120.802171,32.1267784 C126.722415,33.4565345 127.281196,39.4333638 124.741928,44.0521443 C121.898513,49.8097052 116.876562,52.4338516 112.59022,56.7626321 C112.717537,57.9084857 111.790952,60.9640955 113.870464,60.030437 C119.677537,57.3921443 125.413879,52.1438516 129.007049,46.9309248 C131.857537,42.0999492 133.052903,35.6987296 128.681684,31.3275101 C124.161928,26.3126321 114.980952,26.8289735 109.343635,29.4743394 C101.789489,32.4450711 95.92583,39.9497052 92.1416836,46.8743394 C90.3238788,48.5436077 87.1833909,47.4401931 84.9694885,47.4826321 C80.2941227,47.4967784 75.5550983,47.2775101 70.9009519,47.5887296 C67.6685129,48.5365345 64.8109519,51.662876 62.4980251,53.9970223 C55.03583,61.4026321 47.7999763,69.020437 39.9416836,76.0158028 C36.1504641,80.8043394 30.9587568,83.8670223 27.3868056,88.9314126 C25.5336349,91.0675101 23.5955861,92.5033638 25.6468056,95.452876 C32.1116836,103.438486 40.6419275,110.504583 48.0899763,117.556535 C52.2419275,120.364583 55.1136349,125.266291 59.5838788,127.289217 C64.6977812,128.449217 67.053147,125.039949 70.2926592,121.913608 C81.5319275,110.108486 93.5916836,99.5906809 104.958269,87.9694613 C107.79461,85.3594613 110.185342,82.6221443 109.251684,78.4772662 C109.13144,70.6684857 108.112903,63.057754 108.254367,55.2489735 C107.306562,50.1775101 102.044123,49.3994613 97.8143666,48.5789735 Z" id="p1"></path>
                        </g>
                        <g id="p2-link" transform="translate(33.171086, 36.630124)" fill="#000000" fill-rule="nonzero" stroke="#EFF6F7">
                            <path d="M103.914036,3.82133952 C108.285255,8.19255903 107.08989,14.5937785 104.239402,19.4247541 C100.646231,24.637681 94.9098896,29.8859737 89.1028164,32.5242663 C87.0233042,33.4579249 87.9498896,30.4023151 87.8225725,29.2564615 C92.108914,24.927681 97.1308652,22.3035346 99.9742798,16.5459737 C102.513548,11.9271932 101.954768,5.95036391 96.0345237,4.62060781 C89.0815969,3.38280293 81.1242798,8.84329073 76.9581823,14.0915834 C75.4940359,15.9093883 72.763792,18.5830468 73.0467189,21.0728029 C77.276475,21.8932907 82.538914,22.6713395 83.4867189,27.7428029 C83.3452555,35.5515834 84.363792,43.1623151 84.4840359,50.9710956 C85.4176945,55.1159737 83.0269628,57.8532907 80.1906213,60.4632907 C68.8240359,72.0845102 56.7642798,82.6023151 45.5250115,94.4074371 C42.2854994,97.5337785 39.9301335,100.943047 34.8162311,99.7830468 C30.3459872,97.76012 27.4742798,92.8584127 23.3223286,90.0503639 C15.8742798,82.9984127 7.34403594,75.9323151 0.879157891,67.9467054 C-1.17206162,64.9971932 0.765987159,63.5613395 2.61915789,61.425242 C6.19110911,56.3608517 11.3828164,53.2981688 15.1740359,48.5096322 C23.0323286,41.5142663 30.2681823,33.8964615 37.7303774,26.4908517 C40.0433042,24.1567054 42.9008652,21.0303639 46.1333042,20.082559 C50.7874506,19.7713395 55.526475,19.9906078 60.2018408,19.9764615 C62.4157433,19.9340224 65.5562311,21.0374371 67.3740359,19.3681688 C71.1581823,12.4435346 77.0218408,4.93890049 84.5759872,1.96816878 C90.2133042,-0.67719707 99.3942798,-1.19353853 103.914036,3.82133952 Z M67.9894018,37.6381688 C64.0920847,36.5064615 65.0115969,33.6418273 63.6818408,30.6074371 C60.7181823,31.7462176 59.1196457,33.7549981 58.801353,36.9379249 C59.5794018,41.50012 62.9815969,44.4991444 67.7206213,43.7635346 C74.7867189,43.1340224 76.5974506,32.3474371 70.1254994,29.9284127 C70.401353,33.5003639 71.9291579,35.5515834 67.9894018,37.6381688 Z" id="p2"></path>
                        </g>
                        <g id="p3-link" transform="translate(91.972439, 66.558537)" fill="#000000" fill-rule="nonzero" stroke="#078262">
                            <path d="M11.3241463,0 C17.7960976,2.41902439 15.9853659,13.2056098 8.91926829,13.835122 C4.1802439,14.5707317 0.77804878,11.5717073 -2.01031603e-14,7.0095122 C0.318292683,3.82658537 1.91682927,1.81780488 4.8804878,0.67902439 C6.2102439,3.71341463 5.29073171,6.57804878 9.18804878,7.7097561 C13.1278049,5.62317073 11.6,3.57195122 11.3241463,0 Z" id="p3"></path>
                        </g>
                    </g>
                    <g>
                        <g id="p0-link" fill="#EFF6F7" fill-rule="nonzero">
                            <path d="M0,0 L174,0 L174,174 L0,174 L0,0 Z M39.5743902,9.71146341 C29.1273171,10.3763415 19.9180488,16.1056098 13.8917073,24.5085366 C8.66463415,32.9326829 8.1695122,41.9863415 8.48780488,51.6341463 C8.48780488,75.6829268 8.48780488,99.7317073 8.48780488,123.780488 C8.11292683,133.26561 8.78487805,142.941707 14.705122,150.807073 C21.0639024,159.761707 30.8178049,164.45122 41.7246341,164.804878 C70.7104878,164.819024 99.7458537,164.776585 128.731707,164.826098 C138.853415,164.437073 148.373902,162.590976 155.46122,154.753902 C162.371707,148.571951 165.116098,139.893171 165.533415,130.860732 C165.490976,101.386829 165.505122,71.8987805 165.526341,42.424878 C164.769512,31.7868293 160.553902,22.2309756 151.655854,15.9712195 C144.271463,9.64780488 132.346098,8.96878049 123.073171,9.19512195 C106.097561,9.19512195 89.1219512,9.19512195 72.1463415,9.19512195 C61.3385366,9.48512195 50.3114634,8.5797561 39.5743902,9.71146341 Z" id="p0"></path>
                        </g>
                        <g id="p1-link" transform="translate(8.403438, 9.123953)" fill="#078262" fill-rule="nonzero">
                            <path d="M63.7429031,0.0711686646 C80.7185129,0.0711686646 97.6941227,0.0711686646 114.669732,0.0711686646 C123.942659,-0.155172799 135.868025,0.523851591 143.252415,6.84726623 C152.150464,13.1070223 156.366074,22.662876 157.122903,33.3009248 C157.101684,62.7748272 157.087537,92.262876 157.129976,121.736778 C156.712659,130.769217 153.968269,139.447998 147.057781,145.629949 C139.970464,153.467022 130.449976,155.31312 120.328269,155.702144 C91.3424153,155.652632 62.3070495,155.695071 33.3211958,155.680925 C22.4143666,155.327266 12.6604641,150.637754 6.30168363,141.68312 C0.38143973,133.817754 -0.290511489,124.141656 0.0843665597,114.656535 C0.0843665597,90.607754 0.0843665597,66.5589735 0.0843665597,42.5101931 C-0.233926123,32.8623882 0.261195828,23.8087296 5.488269,15.3845833 C11.5146105,6.98165647 20.7238788,1.25238818 31.1709519,0.587510128 C41.9080251,-0.544197189 52.9350983,0.361168665 63.7429031,0.0711686646 Z M97.8143666,48.5789735 C97.5314397,46.0892174 100.261684,43.4155589 101.72583,41.597754 C105.891928,36.3494613 113.849245,30.8889735 120.802171,32.1267784 C126.722415,33.4565345 127.281196,39.4333638 124.741928,44.0521443 C121.898513,49.8097052 116.876562,52.4338516 112.59022,56.7626321 C112.717537,57.9084857 111.790952,60.9640955 113.870464,60.030437 C119.677537,57.3921443 125.413879,52.1438516 129.007049,46.9309248 C131.857537,42.0999492 133.052903,35.6987296 128.681684,31.3275101 C124.161928,26.3126321 114.980952,26.8289735 109.343635,29.4743394 C101.789489,32.4450711 95.92583,39.9497052 92.1416836,46.8743394 C90.3238788,48.5436077 87.1833909,47.4401931 84.9694885,47.4826321 C80.2941227,47.4967784 75.5550983,47.2775101 70.9009519,47.5887296 C67.6685129,48.5365345 64.8109519,51.662876 62.4980251,53.9970223 C55.03583,61.4026321 47.7999763,69.020437 39.9416836,76.0158028 C36.1504641,80.8043394 30.9587568,83.8670223 27.3868056,88.9314126 C25.5336349,91.0675101 23.5955861,92.5033638 25.6468056,95.452876 C32.1116836,103.438486 40.6419275,110.504583 48.0899763,117.556535 C52.2419275,120.364583 55.1136349,125.266291 59.5838788,127.289217 C64.6977812,128.449217 67.053147,125.039949 70.2926592,121.913608 C81.5319275,110.108486 93.5916836,99.5906809 104.958269,87.9694613 C107.79461,85.3594613 110.185342,82.6221443 109.251684,78.4772662 C109.13144,70.6684857 108.112903,63.057754 108.254367,55.2489735 C107.306562,50.1775101 102.044123,49.3994613 97.8143666,48.5789735 Z" id="p1"></path>
                        </g>
                        <g id="p2-link" transform="translate(33.171086, 36.630124)" fill="#EFF6F7" fill-rule="nonzero">
                            <path d="M103.914036,3.82133952 C108.285255,8.19255903 107.08989,14.5937785 104.239402,19.4247541 C100.646231,24.637681 94.9098896,29.8859737 89.1028164,32.5242663 C87.0233042,33.4579249 87.9498896,30.4023151 87.8225725,29.2564615 C92.108914,24.927681 97.1308652,22.3035346 99.9742798,16.5459737 C102.513548,11.9271932 101.954768,5.95036391 96.0345237,4.62060781 C89.0815969,3.38280293 81.1242798,8.84329073 76.9581823,14.0915834 C75.4940359,15.9093883 72.763792,18.5830468 73.0467189,21.0728029 C77.276475,21.8932907 82.538914,22.6713395 83.4867189,27.7428029 C83.3452555,35.5515834 84.363792,43.1623151 84.4840359,50.9710956 C85.4176945,55.1159737 83.0269628,57.8532907 80.1906213,60.4632907 C68.8240359,72.0845102 56.7642798,82.6023151 45.5250115,94.4074371 C42.2854994,97.5337785 39.9301335,100.943047 34.8162311,99.7830468 C30.3459872,97.76012 27.4742798,92.8584127 23.3223286,90.0503639 C15.8742798,82.9984127 7.34403594,75.9323151 0.879157891,67.9467054 C-1.17206162,64.9971932 0.765987159,63.5613395 2.61915789,61.425242 C6.19110911,56.3608517 11.3828164,53.2981688 15.1740359,48.5096322 C23.0323286,41.5142663 30.2681823,33.8964615 37.7303774,26.4908517 C40.0433042,24.1567054 42.9008652,21.0303639 46.1333042,20.082559 C50.7874506,19.7713395 55.526475,19.9906078 60.2018408,19.9764615 C62.4157433,19.9340224 65.5562311,21.0374371 67.3740359,19.3681688 C71.1581823,12.4435346 77.0218408,4.93890049 84.5759872,1.96816878 C90.2133042,-0.67719707 99.3942798,-1.19353853 103.914036,3.82133952 Z M67.9894018,37.6381688 C64.0920847,36.5064615 65.0115969,33.6418273 63.6818408,30.6074371 C60.7181823,31.7462176 59.1196457,33.7549981 58.801353,36.9379249 C59.5794018,41.50012 62.9815969,44.4991444 67.7206213,43.7635346 C74.7867189,43.1340224 76.5974506,32.3474371 70.1254994,29.9284127 C70.401353,33.5003639 71.9291579,35.5515834 67.9894018,37.6381688 Z" id="p2"></path>
                        </g>
                        <g id="p3-link" transform="translate(91.972439, 66.558537)" fill="#078262" fill-rule="nonzero">
                            <path d="M11.3241463,0 C17.7960976,2.41902439 15.9853659,13.2056098 8.91926829,13.835122 C4.1802439,14.5707317 0.77804878,11.5717073 -2.01031603e-14,7.0095122 C0.318292683,3.82658537 1.91682927,1.81780488 4.8804878,0.67902439 C6.2102439,3.71341463 5.29073171,6.57804878 9.18804878,7.7097561 C13.1278049,5.62317073 11.6,3.57195122 11.3241463,0 Z" id="p3"></path>
                        </g>
                    </g>
                </g>
            </g>
        </g>
    </g>
</svg>